<?xml version="1.0" standalone="no"?>
<!DOCTYPE svg PUBLIC "-//W3C//DTD SVG 20010904//EN"
 "http://www.w3.org/TR/2001/REC-SVG-20010904/DTD/svg10.dtd">
<svg version="1.0" xmlns="http://www.w3.org/2000/svg"
 width="16.000000pt" height="16.000000pt" viewBox="0 0 16.000000 16.000000"
 preserveAspectRatio="xMidYMid meet">
<metadata>
Created by potrace 1.11, written by Peter Selinger 2001-2013
</metadata>
<g transform="translate(0.000000,16.000000) scale(0.006154,-0.006154)"
fill="#000000" stroke="none">
<path d="M519 2145 c-1 0 -2 -352 -3 -782 l-1 -783 159 0 159 0 -6 373 c-3
204 -8 417 -11 472 -3 55 -8 147 -10 205 l-5 105 20 -50 c10 -27 31 -84 45
-125 14 -41 30 -84 34 -95 5 -11 28 -72 50 -135 23 -63 61 -169 85 -235 24
-66 64 -178 90 -250 26 -71 58 -160 72 -197 l26 -68 108 0 c103 0 108 1 114
23 7 23 49 139 264 732 72 198 131 366 131 372 0 7 4 14 8 17 5 3 7 -19 6 -47
-1 -29 -5 -126 -9 -217 -4 -91 -8 -192 -10 -225 -3 -55 -7 -563 -6 -627 l1
-28 155 0 c85 0 155 3 156 8 5 51 0 1544 -5 1550 -4 4 -97 7 -207 7 -192 1
-199 0 -205 -20 -3 -11 -9 -29 -14 -40 -5 -11 -66 -184 -135 -385 -107 -308
-221 -635 -240 -689 -3 -8 -8 -12 -10 -9 -3 3 -36 94 -74 204 -38 109 -71 206
-74 214 -3 8 -28 80 -56 160 -27 80 -73 213 -101 295 -29 83 -58 169 -66 193
-26 82 -9 77 -233 77 -111 1 -202 1 -202 0z"/>
</g>
</svg>
